<svg xmlns="http://www.w3.org/2000/svg"
    xmlns:xlink="http://www.w3.org/1999/xlink" viewBox="0 0 3840 2160" width="3840" height="2160" preserveAspectRatio="xMidYMid meet" style="width: 100%; height: 100%; transform: translate3d(0px, 0px, 0px); content-visibility: visible;">
    <defs>
        <clipPath id="__lottie_element_2">
            <rect width="3840" height="2160" x="0" y="0"></rect>
        </clipPath>
        <clipPath id="__lottie_element_4">
            <path d="M0,0 L3840,0 L3840,2160 L0,2160z"></path>
        </clipPath>
    </defs>
    <g clip-path="url(#__lottie_element_2)">
        <g clip-path="url(#__lottie_element_4)" transform="matrix(1,0,0,1,82.5479736328125,-11.009033203125)" opacity="1" style="display: block;">
            <g transform="matrix(1,0,0,1,248.5469970703125,746.4454956054688)" opacity="1" style="display: block;">
                <g opacity="1" transform="matrix(1,0,0,1,1588.0350341796875,526.1580200195312)">
                    <path stroke-linecap="round" stroke-linejoin="round" fill-opacity="0" stroke="rgb(20,3,59)" stroke-opacity="1" stroke-width="2.61" d=" M578.1510009765625,-385.0840148925781 C992.5009765625,-394.6610107421875 1283.7850341796875,-335.09698486328125 1301.4219970703125,-218.59500122070312 C1327.074951171875,-49.137001037597656 764.0570068359375,176.61700439453125 43.88800048828125,285.6390075683594 C-676.281982421875,394.6610107421875 -1280.8909912109375,345.6679992675781 -1306.5450439453125,176.2100067138672 C-1327.074951171875,40.59199905395508 -970.5650024414062,-131.08399963378906 -458.2070007324219,-250.12399291992188"></path>
                </g>    
                <g opacity="1" transform="matrix(1,0,0,1,1587.14599609375,523.6400146484375)">
                    <path stroke-linecap="round" stroke-linejoin="round" fill-opacity="0" stroke="rgb(20,3,59)" stroke-opacity="1" stroke-width="2.61" d=" M622.9149780273438,-271.69000244140625 C120.30699920654297,-283.8699951171875 -321.3059997558594,-175.35299682617188 -321.3059997558594,-175.35299682617188 C-705.3150024414062,-89.7040023803711 -974.5869750976562,32.465999603271484 -960.3579711914062,126.45500183105469 C-942.7830200195312,242.552001953125 -499.3179931640625,271.69000244140625 30.14900016784668,191.53700256347656 C559.6160278320312,111.38400268554688 974.5869750976562,-47.707000732421875 957.0120239257812,-163.8040008544922 C947.7310180664062,-225.11199951171875 774.3099975585938,-268.02099609375 622.9149780273438,-271.69000244140625z"></path>
                </g>
                <g opacity="1" transform="matrix(1,0,0,1,1956.375,647.5850219726562)">
                    <path stroke-linecap="round" stroke-linejoin="round" fill-opacity="0" stroke="rgb(255,255,255)" stroke-opacity="1" stroke-width="2.61" d=" M121.9020004272461,-29.131999969482422 C46.810001373291016,-8.229999542236328 -35.04600143432617,11.418000221252441 -121.9010009765625,29.131999969482422"></path>
                </g>
                <g opacity="1" transform="matrix(1,0,0,1,818.2860107421875,248.7740020751953)">
                    <path stroke-linecap="round" stroke-linejoin="round" fill-opacity="0" stroke="rgb(20,3,59)" stroke-opacity="1" stroke-width="2.61" d=" M-222.47000122070312,67.71099853515625 C-90.62000274658203,18.336000442504883 59.323001861572266,-27.54199981689453 222.468994140625,-67.71099853515625"></path>
                </g>
                <g opacity="1" transform="matrix(1,0,0,1,1600.0250244140625,553.3200073242188)">
                    <path stroke-linecap="round" stroke-linejoin="round" fill-opacity="0" stroke="rgb(20,3,59)" stroke-opacity="1" stroke-width="2.61" d=" M-560.572021484375,-371.5509948730469 C-560.572021484375,-371.5509948730469 -87.21299743652344,-500.3529968261719 503.1669921875,-523.573974609375 C1093.5469970703125,-546.7949829101562 1528.364990234375,-449.4949951171875 1556.594970703125,-263.0169982910156 C1593.5,-19.231000900268555 921.5280151367188,284.6510009765625 55.70199966430664,415.7229919433594 C-810.1229858398438,546.7949829101562 -1541.9310302734375,455.4230041503906 -1578.8360595703125,211.63600158691406 C-1593.5,114.76899719238281 -1496.2449951171875,8.413000106811523 -1319.3790283203125,-92.81999969482422"></path>
                </g>
                <g opacity="1" transform="matrix(1,0,0,1,906.7769775390625,1028.39599609375)">
                    <path stroke-linecap="round" stroke-linejoin="round" fill-opacity="0" stroke="rgb(255,255,255)" stroke-opacity="1" stroke-width="2.61" d=" M107.9990005493164,-0.9269999861717224 C33.07500076293945,1.0169999599456787 -39.10499954223633,0.9649999737739563 -107.9990005493164,-1.0169999599456787"></path>
                </g>
                <g opacity="1" transform="matrix(1,0,0,1,1091.9659423828125,1024.782958984375)">
                    <path stroke-linecap="round" stroke-linejoin="round" fill-opacity="0" stroke="rgb(255,255,255)" stroke-opacity="1" stroke-width="2.61" d=" M11.595999717712402,-0.5 C3.8389999866485596,-0.1459999978542328 -3.8910000324249268,0.18700000643730164 -11.595999717712402,0.5"></path>
                </g>
            </g>
            <g transform="matrix(1.0499221086502075,0,0,1.0499221086502075,226.5235595703125,366.93023681640625)" opacity="1" style="display: block;">
                <g opacity="1" transform="matrix(1,0,0,1,523.5579833984375,473.08599853515625)">
                    <path fill="rgb(233,216,34)" fill-opacity="1" d=" M0,-68.76699829101562 C0,-68.76699829101562 7.360000133514404,-7.360000133514404 7.360000133514404,-7.360000133514404 C7.360000133514404,-7.360000133514404 68.76699829101562,0 68.76699829101562,0 C68.76699829101562,0 7.360000133514404,7.360000133514404 7.360000133514404,7.360000133514404 C7.360000133514404,7.360000133514404 0,68.76699829101562 0,68.76699829101562 C0,68.76699829101562 -7.360000133514404,7.360000133514404 -7.360000133514404,7.360000133514404 C-7.360000133514404,7.360000133514404 -68.76699829101562,0 -68.76699829101562,0 C-68.76699829101562,0 -7.360000133514404,-7.360000133514404 -7.360000133514404,-7.360000133514404 C-7.360000133514404,-7.360000133514404 0,-68.76699829101562 0,-68.76699829101562z"></path>
                    <path stroke-linecap="round" stroke-linejoin="round" fill-opacity="0" stroke="rgb(20,3,59)" stroke-opacity="1" stroke-width="2.61" d=" M0,-68.76699829101562 C0,-68.76699829101562 7.360000133514404,-7.360000133514404 7.360000133514404,-7.360000133514404 C7.360000133514404,-7.360000133514404 68.76699829101562,0 68.76699829101562,0 C68.76699829101562,0 7.360000133514404,7.360000133514404 7.360000133514404,7.360000133514404 C7.360000133514404,7.360000133514404 0,68.76699829101562 0,68.76699829101562 C0,68.76699829101562 -7.360000133514404,7.360000133514404 -7.360000133514404,7.360000133514404 C-7.360000133514404,7.360000133514404 -68.76699829101562,0 -68.76699829101562,0 C-68.76699829101562,0 -7.360000133514404,-7.360000133514404 -7.360000133514404,-7.360000133514404 C-7.360000133514404,-7.360000133514404 0,-68.76699829101562 0,-68.76699829101562z"></path>
                </g>
                <g opacity="1" transform="matrix(1,0,0,1,2540.10791015625,232.55599975585938)">
                    <path fill="rgb(233,216,34)" fill-opacity="1" d=" M0,-68.76699829101562 C0,-68.76699829101562 7.360000133514404,-7.359000205993652 7.360000133514404,-7.359000205993652 C7.360000133514404,-7.359000205993652 68.76699829101562,0 68.76699829101562,0 C68.76699829101562,0 7.360000133514404,7.360000133514404 7.360000133514404,7.360000133514404 C7.360000133514404,7.360000133514404 0,68.76699829101562 0,68.76699829101562 C0,68.76699829101562 -7.360000133514404,7.360000133514404 -7.360000133514404,7.360000133514404 C-7.360000133514404,7.360000133514404 -68.76699829101562,0 -68.76699829101562,0 C-68.76699829101562,0 -7.360000133514404,-7.359000205993652 -7.360000133514404,-7.359000205993652 C-7.360000133514404,-7.359000205993652 0,-68.76699829101562 0,-68.76699829101562z"></path>
                    <path stroke-linecap="round" stroke-linejoin="round" fill-opacity="0" stroke="rgb(20,3,59)" stroke-opacity="1" stroke-width="2.61" d=" M0,-68.76699829101562 C0,-68.76699829101562 7.360000133514404,-7.359000205993652 7.360000133514404,-7.359000205993652 C7.360000133514404,-7.359000205993652 68.76699829101562,0 68.76699829101562,0 C68.76699829101562,0 7.360000133514404,7.360000133514404 7.360000133514404,7.360000133514404 C7.360000133514404,7.360000133514404 0,68.76699829101562 0,68.76699829101562 C0,68.76699829101562 -7.360000133514404,7.360000133514404 -7.360000133514404,7.360000133514404 C-7.360000133514404,7.360000133514404 -68.76699829101562,0 -68.76699829101562,0 C-68.76699829101562,0 -7.360000133514404,-7.359000205993652 -7.360000133514404,-7.359000205993652 C-7.360000133514404,-7.359000205993652 0,-68.76699829101562 0,-68.76699829101562z"></path>
                </g>
                <g opacity="1" transform="matrix(1,0,0,1,1222.824951171875,37.22800064086914)">
                    <path fill="rgb(233,216,34)" fill-opacity="1" d=" M0,-30.70400047302246 C0,-30.70400047302246 3.2860000133514404,-3.2850000858306885 3.2860000133514404,-3.2850000858306885 C3.2860000133514404,-3.2850000858306885 30.70400047302246,0.0010000000474974513 30.70400047302246,0.0010000000474974513 C30.70400047302246,0.0010000000474974513 3.2860000133514404,3.2869999408721924 3.2860000133514404,3.2869999408721924 C3.2860000133514404,3.2869999408721924 0,30.70400047302246 0,30.70400047302246 C0,30.70400047302246 -3.2860000133514404,3.2869999408721924 -3.2860000133514404,3.2869999408721924 C-3.2860000133514404,3.2869999408721924 -30.70400047302246,0.0010000000474974513 -30.70400047302246,0.0010000000474974513 C-30.70400047302246,0.0010000000474974513 -3.2860000133514404,-3.2850000858306885 -3.2860000133514404,-3.2850000858306885 C-3.2860000133514404,-3.2850000858306885 0,-30.70400047302246 0,-30.70400047302246z"></path>
                    <path stroke-linecap="round" stroke-linejoin="round" fill-opacity="0" stroke="rgb(20,3,59)" stroke-opacity="1" stroke-width="2.61" d=" M0,-30.70400047302246 C0,-30.70400047302246 3.2860000133514404,-3.2850000858306885 3.2860000133514404,-3.2850000858306885 C3.2860000133514404,-3.2850000858306885 30.70400047302246,0.0010000000474974513 30.70400047302246,0.0010000000474974513 C30.70400047302246,0.0010000000474974513 3.2860000133514404,3.2869999408721924 3.2860000133514404,3.2869999408721924 C3.2860000133514404,3.2869999408721924 0,30.70400047302246 0,30.70400047302246 C0,30.70400047302246 -3.2860000133514404,3.2869999408721924 -3.2860000133514404,3.2869999408721924 C-3.2860000133514404,3.2869999408721924 -30.70400047302246,0.0010000000474974513 -30.70400047302246,0.0010000000474974513 C-30.70400047302246,0.0010000000474974513 -3.2860000133514404,-3.2850000858306885 -3.2860000133514404,-3.2850000858306885 C-3.2860000133514404,-3.2850000858306885 0,-30.70400047302246 0,-30.70400047302246z"></path>
                </g>
                <g opacity="1" transform="matrix(1,0,0,1,1102.89794921875,818.2479858398438)">
                    <path fill="rgb(233,216,34)" fill-opacity="1" d=" M0,-54.814998626708984 C0,-54.814998626708984 5.867000102996826,-5.866000175476074 5.867000102996826,-5.866000175476074 C5.867000102996826,-5.866000175476074 54.816001892089844,0.0010000000474974513 54.816001892089844,0.0010000000474974513 C54.816001892089844,0.0010000000474974513 5.867000102996826,5.867000102996826 5.867000102996826,5.867000102996826 C5.867000102996826,5.867000102996826 0,54.816001892089844 0,54.816001892089844 C0,54.816001892089844 -5.867000102996826,5.867000102996826 -5.867000102996826,5.867000102996826 C-5.867000102996826,5.867000102996826 -54.816001892089844,0.0010000000474974513 -54.816001892089844,0.0010000000474974513 C-54.816001892089844,0.0010000000474974513 -5.867000102996826,-5.866000175476074 -5.867000102996826,-5.866000175476074 C-5.867000102996826,-5.866000175476074 0,-54.814998626708984 0,-54.814998626708984z"></path>
                    <path stroke-linecap="round" stroke-linejoin="round" fill-opacity="0" stroke="rgb(20,3,59)" stroke-opacity="1" stroke-width="2.61" d=" M0,-54.814998626708984 C0,-54.814998626708984 5.867000102996826,-5.866000175476074 5.867000102996826,-5.866000175476074 C5.867000102996826,-5.866000175476074 54.816001892089844,0.0010000000474974513 54.816001892089844,0.0010000000474974513 C54.816001892089844,0.0010000000474974513 5.867000102996826,5.867000102996826 5.867000102996826,5.867000102996826 C5.867000102996826,5.867000102996826 0,54.816001892089844 0,54.816001892089844 C0,54.816001892089844 -5.867000102996826,5.867000102996826 -5.867000102996826,5.867000102996826 C-5.867000102996826,5.867000102996826 -54.816001892089844,0.0010000000474974513 -54.816001892089844,0.0010000000474974513 C-54.816001892089844,0.0010000000474974513 -5.867000102996826,-5.866000175476074 -5.867000102996826,-5.866000175476074 C-5.867000102996826,-5.866000175476074 0,-54.814998626708984 0,-54.814998626708984z"></path>
                </g>
                <g opacity="1" transform="matrix(1,0,0,1,1013.3930053710938,846.3729858398438)">
                    <path fill="rgb(233,216,34)" fill-opacity="1" d=" M0,-27.13800048828125 C0,-27.13800048828125 2.9040000438690186,-2.9040000438690186 2.9040000438690186,-2.9040000438690186 C2.9040000438690186,-2.9040000438690186 27.13800048828125,0 27.13800048828125,0 C27.13800048828125,0 2.9040000438690186,2.9049999713897705 2.9040000438690186,2.9049999713897705 C2.9040000438690186,2.9049999713897705 0,27.13800048828125 0,27.13800048828125 C0,27.13800048828125 -2.9040000438690186,2.9049999713897705 -2.9040000438690186,2.9049999713897705 C-2.9040000438690186,2.9049999713897705 -27.13800048828125,0 -27.13800048828125,0 C-27.13800048828125,0 -2.9040000438690186,-2.9040000438690186 -2.9040000438690186,-2.9040000438690186 C-2.9040000438690186,-2.9040000438690186 0,-27.13800048828125 0,-27.13800048828125z"></path>
                    <path stroke-linecap="round" stroke-linejoin="round" fill-opacity="0" stroke="rgb(20,3,59)" stroke-opacity="1" stroke-width="2.61" d=" M0,-27.13800048828125 C0,-27.13800048828125 2.9040000438690186,-2.9040000438690186 2.9040000438690186,-2.9040000438690186 C2.9040000438690186,-2.9040000438690186 27.13800048828125,0 27.13800048828125,0 C27.13800048828125,0 2.9040000438690186,2.9049999713897705 2.9040000438690186,2.9049999713897705 C2.9040000438690186,2.9049999713897705 0,27.13800048828125 0,27.13800048828125 C0,27.13800048828125 -2.9040000438690186,2.9049999713897705 -2.9040000438690186,2.9049999713897705 C-2.9040000438690186,2.9049999713897705 -27.13800048828125,0 -27.13800048828125,0 C-27.13800048828125,0 -2.9040000438690186,-2.9040000438690186 -2.9040000438690186,-2.9040000438690186 C-2.9040000438690186,-2.9040000438690186 0,-27.13800048828125 0,-27.13800048828125z"></path>
                </g>
                <g opacity="1" transform="matrix(1,0,0,1,2623.25390625,636.135009765625)">
                    <path fill="rgb(233,216,34)" fill-opacity="1" d=" M0,-30.70400047302246 C0,-30.70400047302246 3.2860000133514404,-3.2850000858306885 3.2860000133514404,-3.2850000858306885 C3.2860000133514404,-3.2850000858306885 30.70400047302246,0.0010000000474974513 30.70400047302246,0.0010000000474974513 C30.70400047302246,0.0010000000474974513 3.2860000133514404,3.2869999408721924 3.2860000133514404,3.2869999408721924 C3.2860000133514404,3.2869999408721924 0,30.70400047302246 0,30.70400047302246 C0,30.70400047302246 -3.2860000133514404,3.2869999408721924 -3.2860000133514404,3.2869999408721924 C-3.2860000133514404,3.2869999408721924 -30.70400047302246,0.0010000000474974513 -30.70400047302246,0.0010000000474974513 C-30.70400047302246,0.0010000000474974513 -3.2860000133514404,-3.2850000858306885 -3.2860000133514404,-3.2850000858306885 C-3.2860000133514404,-3.2850000858306885 0,-30.70400047302246 0,-30.70400047302246z"></path>
                    <path stroke-linecap="round" stroke-linejoin="round" fill-opacity="0" stroke="rgb(20,3,59)" stroke-opacity="1" stroke-width="2.61" d=" M0,-30.70400047302246 C0,-30.70400047302246 3.2860000133514404,-3.2850000858306885 3.2860000133514404,-3.2850000858306885 C3.2860000133514404,-3.2850000858306885 30.70400047302246,0.0010000000474974513 30.70400047302246,0.0010000000474974513 C30.70400047302246,0.0010000000474974513 3.2860000133514404,3.2869999408721924 3.2860000133514404,3.2869999408721924 C3.2860000133514404,3.2869999408721924 0,30.70400047302246 0,30.70400047302246 C0,30.70400047302246 -3.2860000133514404,3.2869999408721924 -3.2860000133514404,3.2869999408721924 C-3.2860000133514404,3.2869999408721924 -30.70400047302246,0.0010000000474974513 -30.70400047302246,0.0010000000474974513 C-30.70400047302246,0.0010000000474974513 -3.2860000133514404,-3.2850000858306885 -3.2860000133514404,-3.2850000858306885 C-3.2860000133514404,-3.2850000858306885 0,-30.70400047302246 0,-30.70400047302246z"></path>
                </g>
                <g opacity="1" transform="matrix(1,0,0,1,37.229000091552734,735.6380004882812)">
                    <path fill="rgb(233,216,34)" fill-opacity="1" d=" M0,-30.702999114990234 C0,-30.702999114990234 3.2860000133514404,-3.2850000858306885 3.2860000133514404,-3.2850000858306885 C3.2860000133514404,-3.2850000858306885 30.70400047302246,0.0010000000474974513 30.70400047302246,0.0010000000474974513 C30.70400047302246,0.0010000000474974513 3.2860000133514404,3.2869999408721924 3.2860000133514404,3.2869999408721924 C3.2860000133514404,3.2869999408721924 0,30.70400047302246 0,30.70400047302246 C0,30.70400047302246 -3.2860000133514404,3.2869999408721924 -3.2860000133514404,3.2869999408721924 C-3.2860000133514404,3.2869999408721924 -30.70400047302246,0.0010000000474974513 -30.70400047302246,0.0010000000474974513 C-30.70400047302246,0.0010000000474974513 -3.2860000133514404,-3.2850000858306885 -3.2860000133514404,-3.2850000858306885 C-3.2860000133514404,-3.2850000858306885 0,-30.702999114990234 0,-30.702999114990234z"></path>
                    <path stroke-linecap="round" stroke-linejoin="round" fill-opacity="0" stroke="rgb(20,3,59)" stroke-opacity="1" stroke-width="2.61" d=" M0,-30.702999114990234 C0,-30.702999114990234 3.2860000133514404,-3.2850000858306885 3.2860000133514404,-3.2850000858306885 C3.2860000133514404,-3.2850000858306885 30.70400047302246,0.0010000000474974513 30.70400047302246,0.0010000000474974513 C30.70400047302246,0.0010000000474974513 3.2860000133514404,3.2869999408721924 3.2860000133514404,3.2869999408721924 C3.2860000133514404,3.2869999408721924 0,30.70400047302246 0,30.70400047302246 C0,30.70400047302246 -3.2860000133514404,3.2869999408721924 -3.2860000133514404,3.2869999408721924 C-3.2860000133514404,3.2869999408721924 -30.70400047302246,0.0010000000474974513 -30.70400047302246,0.0010000000474974513 C-30.70400047302246,0.0010000000474974513 -3.2860000133514404,-3.2850000858306885 -3.2860000133514404,-3.2850000858306885 C-3.2860000133514404,-3.2850000858306885 0,-30.702999114990234 0,-30.702999114990234z"></path>
                </g>
                <g opacity="1" transform="matrix(1,0,0,1,342.1610107421875,1237.800048828125)">
                    <path fill="rgb(233,216,34)" fill-opacity="1" d=" M0,-30.70400047302246 C0,-30.70400047302246 3.2860000133514404,-3.2860000133514404 3.2860000133514404,-3.2860000133514404 C3.2860000133514404,-3.2860000133514404 30.70400047302246,0 30.70400047302246,0 C30.70400047302246,0 3.2860000133514404,3.2860000133514404 3.2860000133514404,3.2860000133514404 C3.2860000133514404,3.2860000133514404 0,30.70400047302246 0,30.70400047302246 C0,30.70400047302246 -3.2860000133514404,3.2860000133514404 -3.2860000133514404,3.2860000133514404 C-3.2860000133514404,3.2860000133514404 -30.70400047302246,0 -30.70400047302246,0 C-30.70400047302246,0 -3.2860000133514404,-3.2860000133514404 -3.2860000133514404,-3.2860000133514404 C-3.2860000133514404,-3.2860000133514404 0,-30.70400047302246 0,-30.70400047302246z"></path>
                    <path stroke-linecap="round" stroke-linejoin="round" fill-opacity="0" stroke="rgb(20,3,59)" stroke-opacity="1" stroke-width="2.61" d=" M0,-30.70400047302246 C0,-30.70400047302246 3.2860000133514404,-3.2860000133514404 3.2860000133514404,-3.2860000133514404 C3.2860000133514404,-3.2860000133514404 30.70400047302246,0 30.70400047302246,0 C30.70400047302246,0 3.2860000133514404,3.2860000133514404 3.2860000133514404,3.2860000133514404 C3.2860000133514404,3.2860000133514404 0,30.70400047302246 0,30.70400047302246 C0,30.70400047302246 -3.2860000133514404,3.2860000133514404 -3.2860000133514404,3.2860000133514404 C-3.2860000133514404,3.2860000133514404 -30.70400047302246,0 -30.70400047302246,0 C-30.70400047302246,0 -3.2860000133514404,-3.2860000133514404 -3.2860000133514404,-3.2860000133514404 C-3.2860000133514404,-3.2860000133514404 0,-30.70400047302246 0,-30.70400047302246z"></path>
                </g>
                <g opacity="1" transform="matrix(1,0,0,1,2297.799072265625,1304.008056640625)">
                    <path fill="rgb(233,216,34)" fill-opacity="1" d=" M0,-68.76699829101562 C0,-68.76699829101562 7.360000133514404,-7.360000133514404 7.360000133514404,-7.360000133514404 C7.360000133514404,-7.360000133514404 68.76699829101562,0 68.76699829101562,0 C68.76699829101562,0 7.360000133514404,7.360000133514404 7.360000133514404,7.360000133514404 C7.360000133514404,7.360000133514404 0,68.76699829101562 0,68.76699829101562 C0,68.76699829101562 -7.360000133514404,7.360000133514404 -7.360000133514404,7.360000133514404 C-7.360000133514404,7.360000133514404 -68.76699829101562,0 -68.76699829101562,0 C-68.76699829101562,0 -7.360000133514404,-7.360000133514404 -7.360000133514404,-7.360000133514404 C-7.360000133514404,-7.360000133514404 0,-68.76699829101562 0,-68.76699829101562z"></path>
                    <path stroke-linecap="round" stroke-linejoin="round" fill-opacity="0" stroke="rgb(20,3,59)" stroke-opacity="1" stroke-width="2.61" d=" M0,-68.76699829101562 C0,-68.76699829101562 7.360000133514404,-7.360000133514404 7.360000133514404,-7.360000133514404 C7.360000133514404,-7.360000133514404 68.76699829101562,0 68.76699829101562,0 C68.76699829101562,0 7.360000133514404,7.360000133514404 7.360000133514404,7.360000133514404 C7.360000133514404,7.360000133514404 0,68.76699829101562 0,68.76699829101562 C0,68.76699829101562 -7.360000133514404,7.360000133514404 -7.360000133514404,7.360000133514404 C-7.360000133514404,7.360000133514404 -68.76699829101562,0 -68.76699829101562,0 C-68.76699829101562,0 -7.360000133514404,-7.360000133514404 -7.360000133514404,-7.360000133514404 C-7.360000133514404,-7.360000133514404 0,-68.76699829101562 0,-68.76699829101562z"></path>
                </g>
                <g opacity="1" transform="matrix(1,0,0,1,2373.1220703125,1207.0970458984375)">
                    <path fill="rgb(233,216,34)" fill-opacity="1" d=" M0,-30.70400047302246 C0,-30.70400047302246 3.2860000133514404,-3.2860000133514404 3.2860000133514404,-3.2860000133514404 C3.2860000133514404,-3.2860000133514404 30.70400047302246,0 30.70400047302246,0 C30.70400047302246,0 3.2860000133514404,3.2860000133514404 3.2860000133514404,3.2860000133514404 C3.2860000133514404,3.2860000133514404 0,30.70400047302246 0,30.70400047302246 C0,30.70400047302246 -3.2860000133514404,3.2860000133514404 -3.2860000133514404,3.2860000133514404 C-3.2860000133514404,3.2860000133514404 -30.70400047302246,0 -30.70400047302246,0 C-30.70400047302246,0 -3.2860000133514404,-3.2860000133514404 -3.2860000133514404,-3.2860000133514404 C-3.2860000133514404,-3.2860000133514404 0,-30.70400047302246 0,-30.70400047302246z"></path>
                    <path stroke-linecap="round" stroke-linejoin="round" fill-opacity="0" stroke="rgb(20,3,59)" stroke-opacity="1" stroke-width="2.61" d=" M0,-30.70400047302246 C0,-30.70400047302246 3.2860000133514404,-3.2860000133514404 3.2860000133514404,-3.2860000133514404 C3.2860000133514404,-3.2860000133514404 30.70400047302246,0 30.70400047302246,0 C30.70400047302246,0 3.2860000133514404,3.2860000133514404 3.2860000133514404,3.2860000133514404 C3.2860000133514404,3.2860000133514404 0,30.70400047302246 0,30.70400047302246 C0,30.70400047302246 -3.2860000133514404,3.2860000133514404 -3.2860000133514404,3.2860000133514404 C-3.2860000133514404,3.2860000133514404 -30.70400047302246,0 -30.70400047302246,0 C-30.70400047302246,0 -3.2860000133514404,-3.2860000133514404 -3.2860000133514404,-3.2860000133514404 C-3.2860000133514404,-3.2860000133514404 0,-30.70400047302246 0,-30.70400047302246z"></path>
                </g>
            </g>
            <g transform="matrix(1,0,0,1,551.650634765625,1041.9964599609375)" opacity="1" style="display: block;">
                <g opacity="1" transform="matrix(1,0,0,1,168.21099853515625,168.21099853515625)">
                    <path fill="rgb(40,85,224)" fill-opacity="1" d=" M161.68600463867188,0 C161.68600463867188,89.2969970703125 89.2969970703125,161.68600463867188 0,161.68600463867188 C-89.2969970703125,161.68600463867188 -161.68699645996094,89.2969970703125 -161.68699645996094,0 C-161.68699645996094,-89.2969970703125 -89.2969970703125,-161.68600463867188 0,-161.68600463867188 C89.2969970703125,-161.68600463867188 161.68600463867188,-89.2969970703125 161.68600463867188,0z"></path>
                    <path stroke-linecap="round" stroke-linejoin="round" fill-opacity="0" stroke="rgb(20,3,59)" stroke-opacity="1" stroke-width="2.61" d=" M161.68600463867188,0 C161.68600463867188,89.2969970703125 89.2969970703125,161.68600463867188 0,161.68600463867188 C-89.2969970703125,161.68600463867188 -161.68699645996094,89.2969970703125 -161.68699645996094,0 C-161.68699645996094,-89.2969970703125 -89.2969970703125,-161.68600463867188 0,-161.68600463867188 C89.2969970703125,-161.68600463867188 161.68600463867188,-89.2969970703125 161.68600463867188,0z"></path>
                </g>
                <g opacity="1" transform="matrix(1,0,0,1,176.12399291992188,170.3800048828125)">
                    <path fill="rgb(170,242,215)" fill-opacity="1" d=" M-54.0989990234375,22.940000534057617 C-54.0989990234375,22.940000534057617 -44.62699890136719,37.308998107910156 -44.62699890136719,37.308998107910156 C-38.50899887084961,46.590999603271484 -28.481000900268555,52.564998626708984 -17.4060001373291,53.52799987792969 C-17.4060001373291,53.52799987792969 -6.193999767303467,54.50299835205078 -6.193999767303467,54.50299835205078 C0.375,55.07400131225586 6.547999858856201,57.88999938964844 11.284000396728516,62.47800064086914 C11.284000396728516,62.47800064086914 16.812000274658203,67.83499908447266 16.812000274658203,67.83499908447266 C21.579999923706055,72.4530029296875 29.253999710083008,72.0979995727539 33.57400131225586,67.05799865722656 C36.1870002746582,64.00900268554688 37.025001525878906,59.81999969482422 35.784000396728516,56.000999450683594 C31.551000595092773,42.97600173950195 34.25299835205078,28.691999435424805 42.952999114990234,18.115999221801758 C42.952999114990234,18.115999221801758 56.375999450683594,1.7979999780654907 56.375999450683594,1.7979999780654907 C60.558998107910156,-3.2869999408721924 60.768001556396484,-10.5600004196167 56.882999420166016,-15.87600040435791 C56.882999420166016,-15.87600040435791 55.970001220703125,-17.125 55.970001220703125,-17.125 C52.57400131225586,-21.773000717163086 47.358001708984375,-24.75200080871582 41.630001068115234,-25.316999435424805 C41.630001068115234,-25.316999435424805 32.79899978637695,-26.187000274658203 32.79899978637695,-26.187000274658203 C14.949000358581543,-27.94700050354004 0.453000009059906,-41.375 -2.6659998893737793,-59.03799819946289 C-2.6659998893737793,-59.03799819946289 -3.2679998874664307,-62.45199966430664 -3.2679998874664307,-62.45199966430664 C-4.289000034332275,-68.23600006103516 -9.315999984741211,-72.4530029296875 -15.1899995803833,-72.4530029296875 C-15.1899995803833,-72.4530029296875 -23.243999481201172,-72.4530029296875 -23.243999481201172,-72.4530029296875 C-29.33799934387207,-72.4530029296875 -33.94900131225586,-66.93900299072266 -32.869998931884766,-60.941001892089844 C-32.869998931884766,-60.941001892089844 -30.604000091552734,-48.35300064086914 -30.604000091552734,-48.35300064086914 C-28.458999633789062,-36.426998138427734 -32.652000427246094,-24.243000030517578 -41.68199920654297,-16.163000106811523 C-41.68199920654297,-16.163000106811523 -49.99100112915039,-8.729999542236328 -49.99100112915039,-8.729999542236328 C-59.02000045776367,-0.6510000228881836 -60.768001556396484,12.824000358581543 -54.0989990234375,22.940000534057617z"></path>
                    <path stroke-linecap="round" stroke-linejoin="round" fill-opacity="0" stroke="rgb(20,3,59)" stroke-opacity="1" stroke-width="2.61" d=" M-54.0989990234375,22.940000534057617 C-54.0989990234375,22.940000534057617 -44.62699890136719,37.308998107910156 -44.62699890136719,37.308998107910156 C-38.50899887084961,46.590999603271484 -28.481000900268555,52.564998626708984 -17.4060001373291,53.52799987792969 C-17.4060001373291,53.52799987792969 -6.193999767303467,54.50299835205078 -6.193999767303467,54.50299835205078 C0.375,55.07400131225586 6.547999858856201,57.88999938964844 11.284000396728516,62.47800064086914 C11.284000396728516,62.47800064086914 16.812000274658203,67.83499908447266 16.812000274658203,67.83499908447266 C21.579999923706055,72.4530029296875 29.253999710083008,72.0979995727539 33.57400131225586,67.05799865722656 C36.1870002746582,64.00900268554688 37.025001525878906,59.81999969482422 35.784000396728516,56.000999450683594 C31.551000595092773,42.97600173950195 34.25299835205078,28.691999435424805 42.952999114990234,18.115999221801758 C42.952999114990234,18.115999221801758 56.375999450683594,1.7979999780654907 56.375999450683594,1.7979999780654907 C60.558998107910156,-3.2869999408721924 60.768001556396484,-10.5600004196167 56.882999420166016,-15.87600040435791 C56.882999420166016,-15.87600040435791 55.970001220703125,-17.125 55.970001220703125,-17.125 C52.57400131225586,-21.773000717163086 47.358001708984375,-24.75200080871582 41.630001068115234,-25.316999435424805 C41.630001068115234,-25.316999435424805 32.79899978637695,-26.187000274658203 32.79899978637695,-26.187000274658203 C14.949000358581543,-27.94700050354004 0.453000009059906,-41.375 -2.6659998893737793,-59.03799819946289 C-2.6659998893737793,-59.03799819946289 -3.2679998874664307,-62.45199966430664 -3.2679998874664307,-62.45199966430664 C-4.289000034332275,-68.23600006103516 -9.315999984741211,-72.4530029296875 -15.1899995803833,-72.4530029296875 C-15.1899995803833,-72.4530029296875 -23.243999481201172,-72.4530029296875 -23.243999481201172,-72.4530029296875 C-29.33799934387207,-72.4530029296875 -33.94900131225586,-66.93900299072266 -32.869998931884766,-60.941001892089844 C-32.869998931884766,-60.941001892089844 -30.604000091552734,-48.35300064086914 -30.604000091552734,-48.35300064086914 C-28.458999633789062,-36.426998138427734 -32.652000427246094,-24.243000030517578 -41.68199920654297,-16.163000106811523 C-41.68199920654297,-16.163000106811523 -49.99100112915039,-8.729999542236328 -49.99100112915039,-8.729999542236328 C-59.02000045776367,-0.6510000228881836 -60.768001556396484,12.824000358581543 -54.0989990234375,22.940000534057617z"></path>
                </g>
                <g opacity="1" transform="matrix(1,0,0,1,85.61199951171875,94.86599731445312)">
                    <path fill="rgb(170,242,215)" fill-opacity="1" d=" M-79.08699798583984,73.34400177001953 C-79.08699798583984,78.375 -78.82499694824219,83.34200286865234 -78.3759994506836,88.25299835205078 C-78.3759994506836,88.25299835205078 -10.934000015258789,49.9630012512207 -10.934000015258789,49.9630012512207 C12.868000030517578,36.44900131225586 24.865999221801758,8.824000358581543 18.492000579833984,-17.792999267578125 C14.911999702453613,-32.74399948120117 23.972000122070312,-47.80400085449219 38.85499954223633,-51.64699935913086 C57.893001556396484,-56.5629997253418 72.66500091552734,-70.5530014038086 79.08699798583984,-88.25299835205078 C-8.581999778747559,-86.37799835205078 -79.08699798583984,-14.77400016784668 -79.08699798583984,73.34400177001953z"></path>
                    <path stroke-linecap="round" stroke-linejoin="round" fill-opacity="0" stroke="rgb(20,3,59)" stroke-opacity="1" stroke-width="2.61" d=" M-79.08699798583984,73.34400177001953 C-79.08699798583984,78.375 -78.82499694824219,83.34200286865234 -78.3759994506836,88.25299835205078 C-78.3759994506836,88.25299835205078 -10.934000015258789,49.9630012512207 -10.934000015258789,49.9630012512207 C12.868000030517578,36.44900131225586 24.865999221801758,8.824000358581543 18.492000579833984,-17.792999267578125 C14.911999702453613,-32.74399948120117 23.972000122070312,-47.80400085449219 38.85499954223633,-51.64699935913086 C57.893001556396484,-56.5629997253418 72.66500091552734,-70.5530014038086 79.08699798583984,-88.25299835205078 C-8.581999778747559,-86.37799835205078 -79.08699798583984,-14.77400016784668 -79.08699798583984,73.34400177001953z"></path>
                </g>
                <g opacity="1" transform="matrix(1,0,0,1,263.38800048828125,146.50100708007812)">
                    <path fill="rgb(170,242,215)" fill-opacity="1" d=" M-62.888999938964844,-136.7449951171875 C-62.888999938964844,-136.7449951171875 -65.17500305175781,-86.06700134277344 -65.17500305175781,-86.06700134277344 C-66.51100158691406,-56.46900177001953 -44.8129997253418,-30.841999053955078 -15.401000022888184,-27.277000427246094 C-5.97599983215332,-26.13599967956543 3.5309998989105225,-28.615999221801758 11.196000099182129,-34.215999603271484 C18.639999389648438,-39.65599822998047 29.20199966430664,-36.926998138427734 33.077999114990234,-28.562000274658203 C33.077999114990234,-28.562000274658203 42.12200164794922,-9.043000221252441 42.12200164794922,-9.043000221252441 C47.12900161743164,1.7669999599456787 44.92599868774414,14.545000076293945 36.58599853515625,23.049999237060547 C36.58599853515625,23.049999237060547 13.560999870300293,46.534000396728516 13.560999870300293,46.534000396728516 C-7.36299991607666,67.87300109863281 -9.236000061035156,101.41600036621094 9.1850004196167,124.9540023803711 C9.1850004196167,124.9540023803711 18.413999557495117,136.7449951171875 18.413999557495117,136.7449951171875 C48.099998474121094,107.43000030517578 66.51000213623047,66.72699737548828 66.51000213623047,21.708999633789062 C66.51000213623047,-56.52899932861328 10.935999870300293,-121.78299713134766 -62.888999938964844,-136.7449951171875z"></path>
                    <path stroke-linecap="round" stroke-linejoin="round" fill-opacity="0" stroke="rgb(20,3,59)" stroke-opacity="1" stroke-width="2.61" d=" M-62.888999938964844,-136.7449951171875 C-62.888999938964844,-136.7449951171875 -65.17500305175781,-86.06700134277344 -65.17500305175781,-86.06700134277344 C-66.51100158691406,-56.46900177001953 -44.8129997253418,-30.841999053955078 -15.401000022888184,-27.277000427246094 C-5.97599983215332,-26.13599967956543 3.5309998989105225,-28.615999221801758 11.196000099182129,-34.215999603271484 C18.639999389648438,-39.65599822998047 29.20199966430664,-36.926998138427734 33.077999114990234,-28.562000274658203 C33.077999114990234,-28.562000274658203 42.12200164794922,-9.043000221252441 42.12200164794922,-9.043000221252441 C47.12900161743164,1.7669999599456787 44.92599868774414,14.545000076293945 36.58599853515625,23.049999237060547 C36.58599853515625,23.049999237060547 13.560999870300293,46.534000396728516 13.560999870300293,46.534000396728516 C-7.36299991607666,67.87300109863281 -9.236000061035156,101.41600036621094 9.1850004196167,124.9540023803711 C9.1850004196167,124.9540023803711 18.413999557495117,136.7449951171875 18.413999557495117,136.7449951171875 C48.099998474121094,107.43000030517578 66.51000213623047,66.72699737548828 66.51000213623047,21.708999633789062 C66.51000213623047,-56.52899932861328 10.935999870300293,-121.78299713134766 -62.888999938964844,-136.7449951171875z"></path>
                </g>
                <g opacity="1" transform="matrix(1,0,0,1,116.97100067138672,275.90899658203125)">
                    <path fill="rgb(170,242,215)" fill-opacity="1" d=" M51.2400016784668,53.9900016784668 C66.00299835205078,53.9900016784668 80.28700256347656,51.972999572753906 93.8740005493164,48.266998291015625 C93.8740005493164,48.266998291015625 75.38500213623047,29.07699966430664 75.38500213623047,29.07699966430664 C59.957000732421875,13.0649995803833 38.676998138427734,4.017000198364258 16.44099998474121,4.017000198364258 C16.44099998474121,4.017000198364258 15.82699966430664,4.017000198364258 15.82699966430664,4.017000198364258 C0.1379999965429306,4.017000198364258 -14.572999954223633,-3.6059999465942383 -23.621000289916992,-16.423999786376953 C-23.621000289916992,-16.423999786376953 -35.68199920654297,-33.5099983215332 -35.68199920654297,-33.5099983215332 C-47.69300079345703,-50.525001525878906 -71.51899719238281,-53.9900016784668 -87.87799835205078,-41.0989990234375 C-87.87799835205078,-41.0989990234375 -93.8740005493164,-36.37300109863281 -93.8740005493164,-36.37300109863281 C-67.51699829101562,17.148000717163086 -12.451000213623047,53.9900016784668 51.2400016784668,53.9900016784668z"></path>
                    <path stroke-linecap="round" stroke-linejoin="round" fill-opacity="0" stroke="rgb(20,3,59)" stroke-opacity="1" stroke-width="2.61" d=" M51.2400016784668,53.9900016784668 C66.00299835205078,53.9900016784668 80.28700256347656,51.972999572753906 93.8740005493164,48.266998291015625 C93.8740005493164,48.266998291015625 75.38500213623047,29.07699966430664 75.38500213623047,29.07699966430664 C59.957000732421875,13.0649995803833 38.676998138427734,4.017000198364258 16.44099998474121,4.017000198364258 C16.44099998474121,4.017000198364258 15.82699966430664,4.017000198364258 15.82699966430664,4.017000198364258 C0.1379999965429306,4.017000198364258 -14.572999954223633,-3.6059999465942383 -23.621000289916992,-16.423999786376953 C-23.621000289916992,-16.423999786376953 -35.68199920654297,-33.5099983215332 -35.68199920654297,-33.5099983215332 C-47.69300079345703,-50.525001525878906 -71.51899719238281,-53.9900016784668 -87.87799835205078,-41.0989990234375 C-87.87799835205078,-41.0989990234375 -93.8740005493164,-36.37300109863281 -93.8740005493164,-36.37300109863281 C-67.51699829101562,17.148000717163086 -12.451000213623047,53.9900016784668 51.2400016784668,53.9900016784668z"></path>
                </g>
            </g>
            <g transform="matrix(1,0,0,1,2550.63134765625,682.6372680664062)" opacity="1" style="display: block;">
                <g opacity="1" transform="matrix(1,0,0,1,87.9489974975586,87.9489974975586)">
                    <path fill="rgb(151,130,255)" fill-opacity="1" d=" M81.42400360107422,0 C81.42400360107422,44.96900177001953 44.96900177001953,81.42400360107422 0,81.42400360107422 C-44.970001220703125,81.42400360107422 -81.42400360107422,44.96900177001953 -81.42400360107422,0 C-81.42400360107422,-44.96900177001953 -44.970001220703125,-81.42400360107422 0,-81.42400360107422 C44.96900177001953,-81.42400360107422 81.42400360107422,-44.96900177001953 81.42400360107422,0z"></path>
                    <path stroke-linecap="round" stroke-linejoin="round" fill-opacity="0" stroke="rgb(20,3,59)" stroke-opacity="1" stroke-width="2.61" d=" M81.42400360107422,0 C81.42400360107422,44.96900177001953 44.96900177001953,81.42400360107422 0,81.42400360107422 C-44.970001220703125,81.42400360107422 -81.42400360107422,44.96900177001953 -81.42400360107422,0 C-81.42400360107422,-44.96900177001953 -44.970001220703125,-81.42400360107422 0,-81.42400360107422 C44.96900177001953,-81.42400360107422 81.42400360107422,-44.96900177001953 81.42400360107422,0z"></path>
                </g>
                <g opacity="1" transform="matrix(1,0,0,1,103.68599700927734,59.33100128173828)">
                    <path stroke-linecap="round" stroke-linejoin="round" fill-opacity="0" stroke="rgb(20,3,59)" stroke-opacity="1" stroke-width="2.61" d=" M21.488000869750977,-9.633999824523926 C10.678000450134277,-2.9690001010894775 -3.428999900817871,3.9079999923706055 -21.488000869750977,9.633999824523926"></path>
                </g>
                <g opacity="1" transform="matrix(1,0,0,1,142.7050018310547,36.7140007019043)">
                    <path stroke-linecap="round" stroke-linejoin="round" fill-opacity="0" stroke="rgb(20,3,59)" stroke-opacity="1" stroke-width="2.61" d=" M4.854000091552734,-4.2170000076293945 C2.299999952316284,-1.718000054359436 -0.9100000262260437,1.1490000486373901 -4.854000091552734,4.2170000076293945"></path>
                </g>
                <g opacity="1" transform="matrix(1,0,0,1,126.27200317382812,68.822998046875)">
                    <path stroke-linecap="round" stroke-linejoin="round" fill-opacity="0" stroke="rgb(20,3,59)" stroke-opacity="1" stroke-width="2.61" d=" M33.56800079345703,-19.125999450683594 C24.226999282836914,-9.480999946594238 3.7839999198913574,7.2820000648498535 -33.56800079345703,19.125999450683594"></path>
                </g>
                <g opacity="1" transform="matrix(1,0,0,1,114.5770034790039,103.50800323486328)">
                    <path stroke-linecap="round" stroke-linejoin="round" fill-opacity="0" stroke="rgb(20,3,59)" stroke-opacity="1" stroke-width="2.61" d=" M9.52400016784668,-3.505000114440918 C3.7300000190734863,-1.0509999990463257 -2.6070001125335693,1.312000036239624 -9.52400016784668,3.505000114440918"></path>
                </g>
                <g opacity="1" transform="matrix(1,0,0,1,154.89500427246094,82.12200164794922)">
                    <path stroke-linecap="round" stroke-linejoin="round" fill-opacity="0" stroke="rgb(20,3,59)" stroke-opacity="1" stroke-width="2.61" d=" M13.062000274658203,-9.253000259399414 C7.21999979019165,-3.9030001163482666 -1.2829999923706055,2.691999912261963 -13.062000274658203,9.253000259399414"></path>
                </g>
            </g>
            <g transform="matrix(1,0,0,1,1106.697509765625,1419.0482177734375)" opacity="1" style="display: block;">
                <g opacity="1" transform="matrix(1,0,0,1,61.279998779296875,61.279998779296875)">
                    <path fill="rgb(170,242,215)" fill-opacity="1" d=" M51.077999114990234,6.658999919891357 C47.400001525878906,34.86899948120117 21.549999237060547,54.755001068115234 -6.659999847412109,51.077999114990234 C-34.86899948120117,47.400001525878906 -54.755001068115234,21.551000595092773 -51.077999114990234,-6.658999919891357 C-47.400001525878906,-34.86800003051758 -21.551000595092773,-54.755001068115234 6.6579999923706055,-51.077999114990234 C34.86800003051758,-47.400001525878906 54.75600051879883,-21.549999237060547 51.077999114990234,6.658999919891357z"></path>
                    <path stroke-linecap="round" stroke-linejoin="round" fill-opacity="0" stroke="rgb(20,3,59)" stroke-opacity="1" stroke-width="2.61" d=" M51.077999114990234,6.658999919891357 C47.400001525878906,34.86899948120117 21.549999237060547,54.755001068115234 -6.659999847412109,51.077999114990234 C-34.86899948120117,47.400001525878906 -54.755001068115234,21.551000595092773 -51.077999114990234,-6.658999919891357 C-47.400001525878906,-34.86800003051758 -21.551000595092773,-54.755001068115234 6.6579999923706055,-51.077999114990234 C34.86800003051758,-47.400001525878906 54.75600051879883,-21.549999237060547 51.077999114990234,6.658999919891357z"></path>
                </g>
                <g opacity="1" transform="matrix(1,0,0,1,64.04000091552734,32.0890007019043)">
                    <path stroke-linecap="round" stroke-linejoin="round" fill-opacity="0" stroke="rgb(20,3,59)" stroke-opacity="1" stroke-width="2.61" d=" M-42.14899826049805,-4.011000156402588 C-37.39799880981445,-4.684000015258789 -35.3849983215332,-6.9629998207092285 -28.04800033569336,-6.00600004196167 C-18.26300048828125,-4.730999946594238 -18.851999282836914,-0.21400000154972076 -9.067000389099121,1.062000036239624 C0.7210000157356262,2.3380000591278076 1.309999942779541,-2.178999900817871 11.097999572753906,-0.902999997138977 C20.884000778198242,0.37299999594688416 20.295000076293945,4.889999866485596 30.079999923706055,6.164999961853027 C36.20000076293945,6.9629998207092285 38.724998474121094,5.498000144958496 42.14899826049805,4.598999977111816"></path>
                </g>
                <g opacity="1" transform="matrix(1,0,0,1,59.02899932861328,86.76799774169922)">
                    <path stroke-linecap="round" stroke-linejoin="round" fill-opacity="0" stroke="rgb(20,3,59)" stroke-opacity="1" stroke-width="2.61" d=" M44.61600112915039,3.828000068664551 C38.05699920654297,3.9119999408721924 36.45800018310547,7.123000144958496 28.020000457763672,6.0229997634887695 C18.235000610351562,4.747000217437744 18.822999954223633,0.23000000417232513 9.038999557495117,-1.0449999570846558 C-0.75,-2.321000099182129 -1.3380000591278076,2.194999933242798 -11.126999855041504,0.9190000295639038 C-20.91200065612793,-0.3569999933242798 -20.32200050354004,-4.873000144958496 -30.10700035095215,-6.14900016784668 C-37.57400131225586,-7.122000217437744 -39.691001892089844,-4.7270002365112305 -44.61600112915039,-4.099999904632568"></path>
                </g>
                <g opacity="1" transform="matrix(1,0,0,1,61.2859992980957,61.28200149536133)">
                    <path stroke-linecap="round" stroke-linejoin="round" fill-opacity="0" stroke="rgb(20,3,59)" stroke-opacity="1" stroke-width="2.61" d=" M51.31100082397461,4.4679999351501465 C50.67300033569336,4.335000038146973 49.981998443603516,4.218999862670898 49.23099899291992,4.120999813079834 C39.448001861572266,2.8459999561309814 38.86000061035156,7.361999988555908 29.077999114990234,6.086999893188477 C19.292999267578125,4.810999870300293 19.881000518798828,0.29499998688697815 10.095999717712402,-0.9810000061988831 C0.30799999833106995,-2.256999969482422 -0.2800000011920929,2.259000062942505 -10.069000244140625,0.9829999804496765 C-19.854000091552734,-0.2930000126361847 -19.266000747680664,-4.809000015258789 -29.051000595092773,-6.085000038146973 C-38.84299850463867,-7.361000061035156 -39.43199920654297,-2.8440001010894775 -49.2239990234375,-4.120999813079834 C-49.97800064086914,-4.218999862670898 -50.67100143432617,-4.336999893188477 -51.31100082397461,-4.4710001945495605"></path>
                </g>
            </g>
            <g transform="matrix(1,0,0,1,2697.042236328125,1317.21044921875)" opacity="1" style="display: block;">
                <g opacity="1" transform="matrix(1,0,0,1,134.41799926757812,134.41900634765625)">
                    <path fill="rgb(235,86,56)" fill-opacity="1" d=" M127.89399719238281,0 C127.89399719238281,70.63400268554688 70.63400268554688,127.89399719238281 0,127.89399719238281 C-70.63300323486328,127.89399719238281 -127.89399719238281,70.63400268554688 -127.89399719238281,0 C-127.89399719238281,-70.63400268554688 -70.63300323486328,-127.89399719238281 0,-127.89399719238281 C70.63400268554688,-127.89399719238281 127.89399719238281,-70.63400268554688 127.89399719238281,0z"></path>
                    <path stroke-linecap="round" stroke-linejoin="round" fill-opacity="0" stroke="rgb(20,3,59)" stroke-opacity="1" stroke-width="2.61" d=" M127.89399719238281,0 C127.89399719238281,70.63400268554688 70.63400268554688,127.89399719238281 0,127.89399719238281 C-70.63300323486328,127.89399719238281 -127.89399719238281,70.63400268554688 -127.89399719238281,0 C-127.89399719238281,-70.63400268554688 -70.63300323486328,-127.89399719238281 0,-127.89399719238281 C70.63400268554688,-127.89399719238281 127.89399719238281,-70.63400268554688 127.89399719238281,0z"></path>
                </g>
                <g opacity="1" transform="matrix(1,0,0,1,112.1259994506836,76.55799865722656)">
                    <path fill="rgb(151,130,255)" fill-opacity="1" d=" M-105.43800354003906,51.38100051879883 C-55.90700149536133,43.18000030517578 39.36399841308594,20.367000579833984 105.43800354003906,-39.275001525878906 C100.23699951171875,-43.72999954223633 94.69300079345703,-47.79600143432617 88.81900024414062,-51.38100051879883 C27.551000595092773,-1.7860000133514404 -53.63399887084961,19.66200065612793 -102.18499755859375,28.535999298095703 C-103.91899871826172,35.93000030517578 -105.0479965209961,43.555999755859375 -105.43800354003906,51.38100051879883z"></path>
                    <path stroke-linecap="round" stroke-linejoin="round" fill-opacity="0" stroke="rgb(20,3,59)" stroke-opacity="1" stroke-width="2.61" d=" M-105.43800354003906,51.38100051879883 C-55.90700149536133,43.18000030517578 39.36399841308594,20.367000579833984 105.43800354003906,-39.275001525878906 C100.23699951171875,-43.72999954223633 94.69300079345703,-47.79600143432617 88.81900024414062,-51.38100051879883 C27.551000595092773,-1.7860000133514404 -53.63399887084961,19.66200065612793 -102.18499755859375,28.535999298095703 C-103.91899871826172,35.93000030517578 -105.0479965209961,43.555999755859375 -105.43800354003906,51.38100051879883z"></path>
                </g>
                <g opacity="1" transform="matrix(1,0,0,1,135.2989959716797,137.7209930419922)">
                    <path fill="rgb(151,130,255)" fill-opacity="1" d=" M-112.65499877929688,58.84700012207031 C-75.18800354003906,54.084999084472656 44.94900131225586,33.619998931884766 121.90599822998047,-39.069000244140625 C119.91600036621094,-45.91299819946289 117.4010009765625,-52.529998779296875 114.35099792480469,-58.84700012207031 C34.96099853515625,14.897000312805176 -88.85600280761719,34.106998443603516 -121.90599822998047,38.03300094604492 C-119.43000030517578,45.2859992980957 -116.33300018310547,52.24800109863281 -112.65499877929688,58.84700012207031z"></path>
                    <path stroke-linecap="round" stroke-linejoin="round" fill-opacity="0" stroke="rgb(20,3,59)" stroke-opacity="1" stroke-width="2.61" d=" M-112.65499877929688,58.84700012207031 C-75.18800354003906,54.084999084472656 44.94900131225586,33.619998931884766 121.90599822998047,-39.069000244140625 C119.91600036621094,-45.91299819946289 117.4010009765625,-52.529998779296875 114.35099792480469,-58.84700012207031 C34.96099853515625,14.897000312805176 -88.85600280761719,34.106998443603516 -121.90599822998047,38.03300094604492 C-119.43000030517578,45.2859992980957 -116.33300018310547,52.24800109863281 -112.65499877929688,58.84700012207031z"></path>
                </g>
                <g opacity="1" transform="matrix(1,0,0,1,159.4759979248047,201.2259979248047)">
                    <path fill="rgb(151,130,255)" fill-opacity="1" d=" M-72.5009994506836,51.957000732421875 C-26.385000228881836,41.827999114990234 39.95000076293945,21.263999938964844 93.60399627685547,-19.10099983215332 C97.7699966430664,-29.45400047302246 100.62100219726562,-40.47100067138672 101.94999694824219,-51.957000732421875 C36.76300048828125,4.36899995803833 -54.053001403808594,26.96500015258789 -101.94999694824219,35.38800048828125 C-92.98100280761719,42.14699935913086 -83.08499908447266,47.72700119018555 -72.5009994506836,51.957000732421875z"></path>
                    <path stroke-linecap="round" stroke-linejoin="round" fill-opacity="0" stroke="rgb(20,3,59)" stroke-opacity="1" stroke-width="2.61" d=" M-72.5009994506836,51.957000732421875 C-26.385000228881836,41.827999114990234 39.95000076293945,21.263999938964844 93.60399627685547,-19.10099983215332 C97.7699966430664,-29.45400047302246 100.62100219726562,-40.47100067138672 101.94999694824219,-51.957000732421875 C36.76300048828125,4.36899995803833 -54.053001403808594,26.96500015258789 -101.94999694824219,35.38800048828125 C-92.98100280761719,42.14699935913086 -83.08499908447266,47.72700119018555 -72.5009994506836,51.957000732421875z"></path>
                </g>
            </g>
        </g>
    </g>
</svg>