<svg width="32" height="26" viewBox="0 0 32 26" fill="none" xmlns="http://www.w3.org/2000/svg">
<path d="M26 13L26.7348 12.3217L27.3609 13L26.7348 13.6783L26 13ZM14 14C13.4477 14 13 13.5523 13 13C13 12.4477 13.4477 12 14 12V14ZM22.7348 7.98838L26.7348 12.3217L25.2652 13.6783L21.2652 9.34494L22.7348 7.98838ZM26.7348 13.6783L22.7348 18.0116L21.2652 16.6551L25.2652 12.3217L26.7348 13.6783ZM26 14H14V12H26V14Z" fill="#33363F"/>
<path d="M5 13L4.29289 12.2929L3.58579 13L4.29289 13.7071L5 13ZM17 14C17.5523 14 18 13.5523 18 13C18 12.4477 17.5523 12 17 12V14ZM8.29289 8.29289L4.29289 12.2929L5.70711 13.7071L9.70711 9.70711L8.29289 8.29289ZM4.29289 13.7071L8.29289 17.7071L9.70711 16.2929L5.70711 12.2929L4.29289 13.7071ZM5 14H17V12H5V14Z" fill="#33363F"/>
</svg>
